<svg id="Cofinity-X_RGB_Gradient" xmlns="http://www.w3.org/2000/svg" xmlns:xlink="http://www.w3.org/1999/xlink" width="394.105" height="127.267" viewBox="0 0 394.105 127.267">
  <defs>
    <linearGradient id="linear-gradient" x1="0.001" y1="0.5" x2="1" y2="0.5" gradientUnits="objectBoundingBox">
      <stop offset="0" stop-color="#fdb913"/>
      <stop offset="1" stop-color="#d31184"/>
    </linearGradient>
  </defs>
  <g id="Cofinity-X_Logo_Color" transform="translate(27.82 27.663)">
    <g id="Cofinity-">
      <g id="Group_542" data-name="Group 542">
        <rect id="Rectangle_163" data-name="Rectangle 163" width="8.777" height="36.284" transform="translate(188.628 19.357)" fill="#4d4d4d"/>
        <path id="Path_36" data-name="Path 36" d="M240.554,59.1C230.445,59.1,223,65.448,223,76.5V96.089h8.777V76.732c0-5.877,3.762-9.012,8.7-9.012s8.7,3.135,8.7,9.012V96.089h8.777V76.5C258.108,65.448,250.663,59.1,240.554,59.1Z" transform="translate(-76.063 -40.449)" fill="#4d4d4d"/>
        <rect id="Rectangle_164" data-name="Rectangle 164" width="8.777" height="36.284" transform="translate(132.204 19.357)" fill="#4d4d4d"/>
        <path id="Path_37" data-name="Path 37" d="M129.043,59.1C118.072,59.1,110,66.937,110,77.986s7.993,18.808,19.043,18.808,19.043-7.758,19.043-18.808S140.093,59.1,129.043,59.1Zm0,29.152c-5.956,0-10.109-4.389-10.109-10.266,0-5.956,4.153-10.266,10.109-10.266s10.109,4.31,10.109,10.266C139.152,83.864,135.077,88.252,129.043,88.252Z" transform="translate(-51.617 -40.449)" fill="#4d4d4d"/>
        <path id="Path_38" data-name="Path 38" d="M63.79,44a18.172,18.172,0,0,1,17.4,11.52h9.8C87.614,43.137,77.348,35.3,63.79,35.3,47.1,35.3,35.5,47.133,35.5,63.512S47.1,91.724,63.79,91.724c13.557,0,23.745-7.68,27.193-20.14h-9.8c-2.978,7.131-9.247,11.363-17.4,11.363-11.442,0-19.043-8.385-19.043-19.513S52.349,44,63.79,44Z" transform="translate(-35.5 -35.3)" fill="#4d4d4d"/>
        <path id="Path_39" data-name="Path 39" d="M305.277,77.732V63.861h12.46V55.868h-12.46V40.9H296.5V78.516c0,9.4,4.937,14.028,13.636,14.028a68.8,68.8,0,0,0,8.62-.549V83.531a52.745,52.745,0,0,1-6.9.47C307.079,84.08,305.277,82.042,305.277,77.732Z" transform="translate(-91.963 -36.511)" fill="#4d4d4d"/>
        <path id="Path_40" data-name="Path 40" d="M280.264,38.2a5.565,5.565,0,1,0,5.486,5.564A5.518,5.518,0,0,0,280.264,38.2Z" transform="translate(-87.247 -35.927)" fill="#4d4d4d"/>
        <rect id="Rectangle_165" data-name="Rectangle 165" width="13.166" height="7.837" transform="translate(274.988 28.134)" fill="#4d4d4d"/>
        <path id="Path_41" data-name="Path 41" d="M357.674,77.946c0,5.642-3.918,8.7-8.7,8.7-4.7,0-8.62-3.056-8.62-8.7V60H331.5V77.946c0,10.971,6.818,17.241,16.692,17.241a11.3,11.3,0,0,0,9.4-4.624v4.624c0,5.877-3.918,9.09-9.482,9.09A8.517,8.517,0,0,1,340.2,99.81L333.616,106c3.213,4.153,8.228,6.5,14.419,6.5,10.736,0,18.259-6.426,18.259-17.319V60h-8.855V77.946Z" transform="translate(-99.535 -40.643)" fill="#4d4d4d"/>
        <path id="Path_42" data-name="Path 42" d="M168.52,50.846v4H159.9v7.915h8.62v28.29H177.3V62.758h11.755V54.765H177.3V51c0-3.918,1.724-6.583,5.721-6.583.784,0,3.448.078,6.034.157V36.035c-2.743-.157-5.642-.235-6.661-.235C173.614,35.878,168.6,40.894,168.52,50.846Z" transform="translate(-62.412 -35.408)" fill="#4d4d4d"/>
        <path id="Path_43" data-name="Path 43" d="M208.264,38.2a5.565,5.565,0,1,0,5.486,5.564A5.518,5.518,0,0,0,208.264,38.2Z" transform="translate(-71.671 -35.927)" fill="#4d4d4d"/>
      </g>
    </g>
    <g id="X" transform="translate(284.627 0.078)">
      <path id="Path_44" data-name="Path 44" d="M440.078,35.4,427.225,55.227a1.461,1.461,0,0,1-2.665,0L411.63,35.4H400.346l17.241,25.312c.392.549.784,1.175,1.176,1.646a14.314,14.314,0,0,0-1.019,1.254L398.7,90.962h11.05l14.341-21.472a1.476,1.476,0,0,1,1.332-.862c.47,0,.862.235,1.332.862l14.419,21.472h11.363l-19.043-27.35a15.041,15.041,0,0,0-1.019-1.332,11.679,11.679,0,0,0,1.176-1.567L450.814,35.4Z" transform="translate(-398.7 -35.4)" fill="url(#linear-gradient)"/>
    </g>
  </g>
  <g id="Clear_Space">
    <rect id="Rectangle_166" data-name="Rectangle 166" width="394.105" height="127.267" fill="none"/>
  </g>
</svg>
