<svg xmlns="http://www.w3.org/2000/svg" width="1036.827" height="769.826" viewBox="0 0 1036.827 769.826">
    <defs>
        <clipPath id="9k42kln5ta">
            <path data-name="Rectangle 185" style="fill:#fff" d="M0 0h1036.827v769.826H0z"/>
        </clipPath>
    </defs>
    <g data-name="Mask Group 1" transform="rotate(180 518.413 384.913)" style="clip-path:url(#9k42kln5ta)">
        <g data-name="Group 608" transform="translate(-.776 4.632)">
            <path data-name="Path 1073" d="M28.512 70.811a42.158 42.158 0 0 0 42.149-42.238 28.512 28.512 0 1 1 57.025 0 42.158 42.158 0 0 0 42.149 42.238 28.573 28.573 0 1 1-28.512 28.573 42.149 42.149 0 1 0-84.3 0 28.512 28.512 0 1 1-28.511-28.573z" transform="translate(635.95 141.622)" style="fill:#fff"/>
            <path data-name="Path 1074" d="M593.8 623.632a28.389 28.389 0 0 1-28.512-28.573 42.158 42.158 0 0 0-42.149-42.238 28.389 28.389 0 0 1-28.512-28.573 42.158 42.158 0 0 0-42.149-42.238 28.389 28.389 0 0 1-28.512-28.573 42.158 42.158 0 0 0-42.148-42.237 28.389 28.389 0 0 1-28.512-28.573 42.158 42.158 0 0 0-42.149-42.238 28.389 28.389 0 0 1-28.512-28.573 42.158 42.158 0 0 0-42.145-42.238 28.389 28.389 0 0 1-28.512-28.573 42.158 42.158 0 0 0-42.149-42.238 28.389 28.389 0 0 1-28.512-28.573 42.158 42.158 0 0 0-42.149-42.238 28.389 28.389 0 0 1-28.517-28.573 42.158 42.158 0 0 0-42.149-42.238A28.389 28.389 0 0 1 0 28.573a28.512 28.512 0 1 1 57.025 0 42.158 42.158 0 0 0 42.148 42.238 28.389 28.389 0 0 1 28.512 28.573 42.158 42.158 0 0 0 42.149 42.238 28.389 28.389 0 0 1 28.512 28.573 42.158 42.158 0 0 0 42.154 42.237 28.389 28.389 0 0 1 28.512 28.573 42.158 42.158 0 0 0 42.149 42.238 28.389 28.389 0 0 1 28.512 28.573 42.158 42.158 0 0 0 42.149 42.238 28.389 28.389 0 0 1 28.512 28.573 42.158 42.158 0 0 0 42.149 42.238 28.389 28.389 0 0 1 28.512 28.573 42.158 42.158 0 0 0 42.148 42.238 28.389 28.389 0 0 1 28.513 28.573 42.158 42.158 0 0 0 42.144 42.237 28.573 28.573 0 0 1 0 57.146z" transform="translate(847.933 141.622)" style="fill:#fff"/>
            <ellipse data-name="Ellipse 192" cx="27.839" cy="28.719" rx="27.839" ry="28.719" transform="translate(989.897 141.581)" style="fill:#fff"/>
            <path data-name="Path 1075" d="M169.835 198.767a28.389 28.389 0 0 1-28.512-28.573 42.158 42.158 0 0 0-42.149-42.238 28.389 28.389 0 0 1-28.513-28.573 42.158 42.158 0 0 0-42.149-42.238A28.389 28.389 0 0 1 0 28.573a28.512 28.512 0 1 1 57.025 0 42.158 42.158 0 0 0 42.148 42.238 28.389 28.389 0 0 1 28.512 28.573 42.158 42.158 0 0 0 42.149 42.238 28.573 28.573 0 0 1 0 57.146z" transform="translate(1130.577 141.622)" style="fill:#fff"/>
            <path data-name="Path 1076" d="M28.512 70.811a42.158 42.158 0 0 0 42.149-42.238 28.512 28.512 0 1 1 57.025 0 42.158 42.158 0 0 0 42.149 42.238 28.573 28.573 0 1 1-28.512 28.573 42.149 42.149 0 1 0-84.3 0 28.512 28.512 0 1 1-28.511-28.573z" transform="translate(1201.238 141.622)" style="fill:#fff"/>
            <path data-name="Path 1077" d="M28.512 70.811a42.158 42.158 0 0 0 42.149-42.238 28.512 28.512 0 1 1 57.025 0 42.158 42.158 0 0 0 42.149 42.238 28.573 28.573 0 1 1-28.512 28.573 42.149 42.149 0 1 0-84.3 0 28.512 28.512 0 1 1-28.511-28.573z" transform="translate(1342.56 141.622)" style="fill:#fff"/>
            <path data-name="Path 1078" d="M28.512 70.811a42.158 42.158 0 0 0 42.149-42.238 28.512 28.512 0 1 1 57.025 0 42.158 42.158 0 0 0 42.149 42.238 28.573 28.573 0 1 1-28.512 28.573 42.149 42.149 0 1 0-84.3 0 28.512 28.512 0 1 1-28.511-28.573z" transform="translate(1483.882 141.622)" style="fill:#fff"/>
            <path data-name="Path 1079" d="M70.661 28.573a42.158 42.158 0 0 1-42.149 42.238 28.573 28.573 0 1 0 28.513 28.572 42.158 42.158 0 0 1 42.148-42.238 28.389 28.389 0 0 0 28.512-28.573 28.512 28.512 0 1 0-57.025 0z" transform="translate(1625.205 141.622)" style="fill:#fff"/>
            <path data-name="Path 1080" d="M28.512 70.811a42.158 42.158 0 0 0 42.149-42.238 28.512 28.512 0 1 1 57.025 0 42.158 42.158 0 0 0 42.149 42.238 28.573 28.573 0 1 1-28.512 28.573 42.149 42.149 0 1 0-84.3 0 28.512 28.512 0 1 1-28.511-28.573z" transform="translate(1625.205 141.622)" style="fill:#fff"/>
            <path data-name="Path 1081" d="M28.512 70.811a42.158 42.158 0 0 0 42.149-42.238 28.512 28.512 0 1 1 57.025 0 42.158 42.158 0 0 0 42.149 42.238 28.573 28.573 0 1 1-28.512 28.573 42.149 42.149 0 1 0-84.3 0 28.512 28.512 0 1 1-28.511-28.573z" transform="translate(1766.526 141.622)" style="fill:#fff"/>
            <path data-name="Path 1082" d="M70.661 28.573a42.158 42.158 0 0 1-42.149 42.238 28.573 28.573 0 1 0 28.513 28.572 42.158 42.158 0 0 1 42.148-42.238 28.389 28.389 0 0 0 28.512-28.573 28.512 28.512 0 1 0-57.025 0z" transform="translate(1907.849 141.622)" style="fill:#fff"/>
            <path data-name="Path 1083" d="M28.512 70.811a42.158 42.158 0 0 0 42.149-42.238 28.512 28.512 0 1 1 57.025 0 42.158 42.158 0 0 0 42.149 42.238 28.573 28.573 0 1 1-28.512 28.573 42.149 42.149 0 1 0-84.3 0 28.512 28.512 0 1 1-28.511-28.573z" transform="translate(1907.849 141.622)" style="fill:#fff"/>
            <path data-name="Path 1084" d="M28.512 70.811a42.158 42.158 0 0 0 42.149-42.238 28.512 28.512 0 1 1 57.025 0 42.158 42.158 0 0 0 42.149 42.238 28.573 28.573 0 1 1-28.512 28.573 42.149 42.149 0 1 0-84.3 0 28.512 28.512 0 1 1-28.511-28.573z" transform="translate(2049.171 141.622)" style="fill:#fff"/>
            <path data-name="Path 1085" d="M28.512 70.811a42.158 42.158 0 0 0 42.149-42.238 28.512 28.512 0 1 1 57.025 0 42.158 42.158 0 0 0 42.149 42.238 28.573 28.573 0 1 1-28.512 28.573 42.149 42.149 0 1 0-84.3 0 28.512 28.512 0 1 1-28.511-28.573z" transform="translate(2190.493 141.622)" style="fill:#fff"/>
            <path data-name="Path 1086" d="M28.512 70.811a42.158 42.158 0 0 0 42.149-42.238 28.513 28.513 0 1 1 57.025 0 42.158 42.158 0 0 0 42.149 42.238 28.573 28.573 0 1 1-28.512 28.573 42.149 42.149 0 1 0-84.3 0 28.512 28.512 0 1 1-28.511-28.573z" transform="translate(2331.815 141.622)" style="fill:#fff"/>
            <path data-name="Path 1087" d="M28.512 70.811a42.158 42.158 0 0 0 42.149-42.238 28.512 28.512 0 1 1 57.024 0 42.158 42.158 0 0 0 42.149 42.238 28.573 28.573 0 1 1-28.513 28.573 42.149 42.149 0 1 0-84.3 0 28.512 28.512 0 1 1-28.509-28.573z" transform="translate(2473.137 141.622)" style="fill:#fff"/>
            <path data-name="Path 1088" d="M70.661 28.573a42.158 42.158 0 0 1-42.148 42.238 28.573 28.573 0 1 0 28.512 28.572 42.158 42.158 0 0 1 42.149-42.238 28.389 28.389 0 0 0 28.512-28.573 28.512 28.512 0 1 0-57.025 0z" transform="translate(2614.46 141.622)" style="fill:#fff"/>
            <path data-name="Path 1089" d="M70.661 28.573a42.158 42.158 0 0 1-42.149 42.238 28.573 28.573 0 1 0 28.513 28.573 42.158 42.158 0 0 1 42.148-42.238 28.389 28.389 0 0 0 28.512-28.573 28.513 28.513 0 1 0-57.025 0z" transform="translate(2543.799 212.433)" style="fill:#fff"/>
            <path data-name="Path 1090" d="M57.025 28.573a42.158 42.158 0 0 0 42.149 42.238 28.573 28.573 0 1 1-28.513 28.573 42.158 42.158 0 0 0-42.148-42.238A28.389 28.389 0 0 1 0 28.573a28.512 28.512 0 1 1 57.025 0z" transform="translate(2614.46 212.433)" style="fill:#fff"/>
            <path data-name="Path 1091" d="M28.512 198.767a28.389 28.389 0 0 0 28.512-28.573 42.158 42.158 0 0 1 42.149-42.238 28.389 28.389 0 0 0 28.512-28.573 42.158 42.158 0 0 1 42.148-42.238 28.389 28.389 0 0 0 28.512-28.573 28.512 28.512 0 1 0-57.025 0 42.158 42.158 0 0 1-42.147 42.239 28.389 28.389 0 0 0-28.512 28.572 42.158 42.158 0 0 1-42.148 42.238 28.573 28.573 0 0 0 0 57.146z" transform="translate(2543.799 283.243)" style="fill:#fff"/>
            <path data-name="Path 1092" d="M57.025 28.573a42.158 42.158 0 0 0 42.149 42.238 28.573 28.573 0 1 1-28.513 28.572 42.158 42.158 0 0 0-42.148-42.238A28.389 28.389 0 0 1 0 28.573a28.512 28.512 0 1 1 57.025 0z" transform="translate(2614.46 354.054)" style="fill:#fff"/>
            <path data-name="Path 1093" d="M169.834 198.767a28.389 28.389 0 0 1-28.513-28.573 42.158 42.158 0 0 0-42.149-42.238 28.389 28.389 0 0 1-28.511-28.572 42.158 42.158 0 0 0-42.149-42.238A28.389 28.389 0 0 1 0 28.573a28.512 28.512 0 1 1 57.025 0 42.158 42.158 0 0 0 42.148 42.238 28.389 28.389 0 0 1 28.512 28.573 42.158 42.158 0 0 0 42.149 42.238 28.573 28.573 0 0 1 0 57.145z" transform="translate(2473.137 212.433)" style="fill:#fff"/>
            <path data-name="Path 1094" d="M28.512 198.767a28.389 28.389 0 0 0 28.512-28.573 42.158 42.158 0 0 1 42.149-42.238 28.389 28.389 0 0 0 28.512-28.573 42.158 42.158 0 0 1 42.148-42.238 28.389 28.389 0 0 0 28.512-28.573 28.512 28.512 0 1 0-57.025 0 42.158 42.158 0 0 1-42.147 42.239 28.389 28.389 0 0 0-28.512 28.573 42.158 42.158 0 0 1-42.148 42.238 28.573 28.573 0 0 0 0 57.146z" transform="translate(2543.799 424.865)" style="fill:#fff"/>
            <path data-name="Path 1095" d="M57.025 28.573a42.158 42.158 0 0 0 42.149 42.238 28.573 28.573 0 1 1-28.513 28.572 42.158 42.158 0 0 0-42.148-42.238A28.389 28.389 0 0 1 0 28.573a28.512 28.512 0 1 1 57.025 0z" transform="translate(2614.46 495.676)" style="fill:#fff"/>
            <path data-name="Path 1096" d="M28.512 198.767a28.389 28.389 0 0 0 28.512-28.573 42.158 42.158 0 0 1 42.149-42.238 28.389 28.389 0 0 0 28.512-28.573 42.158 42.158 0 0 1 42.148-42.238 28.389 28.389 0 0 0 28.512-28.573 28.512 28.512 0 1 0-57.025 0 42.158 42.158 0 0 1-42.147 42.239 28.389 28.389 0 0 0-28.512 28.572 42.158 42.158 0 0 1-42.148 42.238 28.573 28.573 0 0 0 0 57.146z" transform="translate(2543.799 566.486)" style="fill:#fff"/>
            <path data-name="Path 1097" d="M169.834 198.767a28.389 28.389 0 0 1-28.512-28.573 42.158 42.158 0 0 0-42.149-42.238 28.389 28.389 0 0 1-28.512-28.573 42.158 42.158 0 0 0-42.149-42.238A28.389 28.389 0 0 1 0 28.573a28.512 28.512 0 1 1 57.025 0 42.158 42.158 0 0 0 42.148 42.238 28.389 28.389 0 0 1 28.512 28.573 42.158 42.158 0 0 0 42.148 42.238 28.573 28.573 0 0 1 0 57.146z" transform="translate(2543.799 566.486)" style="fill:#fff"/>
            <path data-name="Path 1098" d="M169.834 198.767a28.389 28.389 0 0 1-28.512-28.573 42.158 42.158 0 0 0-42.149-42.238 28.389 28.389 0 0 1-28.512-28.573 42.158 42.158 0 0 0-42.149-42.238A28.389 28.389 0 0 1 0 28.573a28.512 28.512 0 1 1 57.025 0 42.158 42.158 0 0 0 42.148 42.238 28.389 28.389 0 0 1 28.512 28.573 42.158 42.158 0 0 0 42.149 42.238 28.573 28.573 0 0 1 0 57.146z" transform="translate(2402.476 566.486)" style="fill:#fff"/>
            <path data-name="Path 1099" d="M169.834 198.767a28.389 28.389 0 0 1-28.513-28.573 42.158 42.158 0 0 0-42.149-42.238 28.389 28.389 0 0 1-28.511-28.573 42.158 42.158 0 0 0-42.149-42.238A28.389 28.389 0 0 1 0 28.573a28.512 28.512 0 1 1 57.025 0 42.158 42.158 0 0 0 42.148 42.238 28.389 28.389 0 0 1 28.512 28.573 42.158 42.158 0 0 0 42.149 42.238 28.573 28.573 0 0 1 0 57.146z" transform="translate(2473.137 354.054)" style="fill:#fff"/>
            <path data-name="Path 1100" d="M28.512 198.767a28.389 28.389 0 0 0 28.512-28.573 42.158 42.158 0 0 1 42.149-42.238 28.389 28.389 0 0 0 28.512-28.573 42.158 42.158 0 0 1 42.149-42.238 28.389 28.389 0 0 0 28.512-28.573 28.512 28.512 0 1 0-57.025 0 42.158 42.158 0 0 1-42.148 42.239 28.389 28.389 0 0 0-28.512 28.572 42.158 42.158 0 0 1-42.149 42.238 28.573 28.573 0 0 0 0 57.146z" transform="translate(2402.476 283.243)" style="fill:#fff"/>
            <path data-name="Path 1101" d="M28.512 198.767a28.389 28.389 0 0 0 28.512-28.573 42.158 42.158 0 0 1 42.149-42.238 28.389 28.389 0 0 0 28.512-28.573 42.158 42.158 0 0 1 42.149-42.238 28.389 28.389 0 0 0 28.512-28.573 28.512 28.512 0 1 0-57.025 0 42.158 42.158 0 0 1-42.148 42.239 28.389 28.389 0 0 0-28.512 28.573 42.158 42.158 0 0 1-42.149 42.238 28.573 28.573 0 0 0 0 57.146z" transform="translate(2402.476 424.865)" style="fill:#fff"/>
            <path data-name="Path 1102" d="M28.512 198.767a28.389 28.389 0 0 0 28.512-28.573 42.158 42.158 0 0 1 42.149-42.238 28.389 28.389 0 0 0 28.512-28.573 42.158 42.158 0 0 1 42.149-42.238 28.389 28.389 0 0 0 28.512-28.573 28.512 28.512 0 1 0-57.025 0 42.158 42.158 0 0 1-42.148 42.239 28.389 28.389 0 0 0-28.512 28.572 42.158 42.158 0 0 1-42.149 42.238 28.573 28.573 0 0 0 0 57.146z" transform="translate(2402.476 566.486)" style="fill:#fff"/>
            <path data-name="Path 1103" d="M57.025 28.573a42.158 42.158 0 0 0 42.148 42.238 28.573 28.573 0 1 1-28.512 28.572 42.158 42.158 0 0 0-42.149-42.238A28.389 28.389 0 0 1 0 28.573a28.512 28.512 0 1 1 57.025 0z" transform="translate(2473.137 495.676)" style="fill:#fff"/>
            <path data-name="Path 1104" d="M169.835 198.767a28.389 28.389 0 0 1-28.512-28.573 42.158 42.158 0 0 0-42.149-42.238 28.389 28.389 0 0 1-28.513-28.573 42.158 42.158 0 0 0-42.149-42.238A28.389 28.389 0 0 1 0 28.573a28.512 28.512 0 1 1 57.025 0 42.158 42.158 0 0 0 42.149 42.238 28.389 28.389 0 0 1 28.512 28.573 42.158 42.158 0 0 0 42.149 42.238 28.573 28.573 0 0 1 0 57.146z" transform="translate(2331.815 354.054)" style="fill:#fff"/>
            <path data-name="Path 1105" d="M169.835 198.767a28.389 28.389 0 0 1-28.512-28.573 42.158 42.158 0 0 0-42.149-42.238 28.389 28.389 0 0 1-28.513-28.572 42.158 42.158 0 0 0-42.149-42.238A28.389 28.389 0 0 1 0 28.573a28.512 28.512 0 1 1 57.025 0 42.158 42.158 0 0 0 42.149 42.238 28.389 28.389 0 0 1 28.512 28.573 42.158 42.158 0 0 0 42.149 42.238 28.573 28.573 0 0 1 0 57.145z" transform="translate(2331.815 212.433)" style="fill:#fff"/>
            <path data-name="Path 1106" d="M70.661 28.573a42.158 42.158 0 0 1-42.149 42.238 28.573 28.573 0 1 0 28.513 28.573 42.158 42.158 0 0 1 42.148-42.238 28.389 28.389 0 0 0 28.512-28.573 28.512 28.512 0 1 0-57.025 0z" transform="translate(2402.476 212.433)" style="fill:#fff"/>
            <path data-name="Path 1107" d="M70.661 28.573a42.158 42.158 0 0 1-42.149 42.238 28.573 28.573 0 1 0 28.513 28.573 42.158 42.158 0 0 1 42.149-42.238 28.389 28.389 0 0 0 28.512-28.573 28.512 28.512 0 1 0-57.025 0z" transform="translate(2261.154 212.433)" style="fill:#fff"/>
            <path data-name="Path 1108" d="M28.512 198.767a28.389 28.389 0 0 0 28.513-28.573 42.158 42.158 0 0 1 42.149-42.238 28.389 28.389 0 0 0 28.512-28.573 42.158 42.158 0 0 1 42.149-42.238 28.389 28.389 0 0 0 28.512-28.573 28.512 28.512 0 1 0-57.025 0 42.158 42.158 0 0 1-42.148 42.239 28.389 28.389 0 0 0-28.513 28.572 42.158 42.158 0 0 1-42.149 42.238 28.573 28.573 0 0 0 0 57.146z" transform="translate(2261.154 283.243)" style="fill:#fff"/>
            <path data-name="Path 1109" d="M28.512 198.767a28.389 28.389 0 0 0 28.513-28.573 42.158 42.158 0 0 1 42.149-42.238 28.389 28.389 0 0 0 28.512-28.573 42.158 42.158 0 0 1 42.149-42.238 28.389 28.389 0 0 0 28.512-28.573 28.512 28.512 0 1 0-57.025 0 42.158 42.158 0 0 1-42.148 42.239 28.389 28.389 0 0 0-28.513 28.573 42.158 42.158 0 0 1-42.149 42.238 28.573 28.573 0 0 0 0 57.146z" transform="translate(2261.154 424.865)" style="fill:#fff"/>
            <path data-name="Path 1110" d="M28.512 198.767a28.389 28.389 0 0 0 28.513-28.573 42.158 42.158 0 0 1 42.149-42.238 28.389 28.389 0 0 0 28.512-28.573 42.158 42.158 0 0 1 42.149-42.238 28.389 28.389 0 0 0 28.512-28.573 28.512 28.512 0 1 0-57.025 0 42.158 42.158 0 0 1-42.148 42.239 28.389 28.389 0 0 0-28.513 28.572 42.158 42.158 0 0 1-42.149 42.238 28.573 28.573 0 0 0 0 57.146z" transform="translate(2261.154 566.486)" style="fill:#fff"/>
            <path data-name="Path 1111" d="M57.025 28.573a42.158 42.158 0 0 0 42.149 42.238 28.573 28.573 0 1 1-28.513 28.572 42.158 42.158 0 0 0-42.149-42.238A28.389 28.389 0 0 1 0 28.573a28.512 28.512 0 1 1 57.025 0z" transform="translate(2331.815 495.676)" style="fill:#fff"/>
            <path data-name="Path 1112" d="M169.835 198.767a28.389 28.389 0 0 1-28.512-28.573 42.158 42.158 0 0 0-42.149-42.238 28.389 28.389 0 0 1-28.513-28.573 42.158 42.158 0 0 0-42.149-42.238A28.389 28.389 0 0 1 0 28.573a28.512 28.512 0 1 1 57.025 0 42.158 42.158 0 0 0 42.149 42.238 28.389 28.389 0 0 1 28.512 28.573 42.158 42.158 0 0 0 42.149 42.238 28.573 28.573 0 0 1 0 57.146z" transform="translate(2261.154 566.486)" style="fill:#fff"/>
            <path data-name="Path 1113" d="M169.835 198.767a28.389 28.389 0 0 1-28.512-28.573 42.158 42.158 0 0 0-42.149-42.238 28.389 28.389 0 0 1-28.513-28.573 42.158 42.158 0 0 0-42.149-42.238A28.389 28.389 0 0 1 0 28.573a28.512 28.512 0 1 1 57.025 0 42.158 42.158 0 0 0 42.148 42.238 28.389 28.389 0 0 1 28.512 28.573 42.158 42.158 0 0 0 42.149 42.238 28.573 28.573 0 0 1 0 57.146z" transform="translate(2190.493 354.054)" style="fill:#fff"/>
            <path data-name="Path 1114" d="M169.835 198.767a28.389 28.389 0 0 1-28.512-28.573 42.158 42.158 0 0 0-42.149-42.238 28.389 28.389 0 0 1-28.513-28.572 42.158 42.158 0 0 0-42.149-42.238A28.389 28.389 0 0 1 0 28.573a28.512 28.512 0 1 1 57.025 0 42.158 42.158 0 0 0 42.148 42.238 28.389 28.389 0 0 1 28.512 28.573 42.158 42.158 0 0 0 42.149 42.238 28.573 28.573 0 0 1 0 57.145z" transform="translate(2190.493 212.433)" style="fill:#fff"/>
            <path data-name="Path 1115" d="M28.512 198.767a28.389 28.389 0 0 0 28.512-28.573 42.158 42.158 0 0 1 42.149-42.238 28.389 28.389 0 0 0 28.512-28.573 42.158 42.158 0 0 1 42.149-42.238 28.389 28.389 0 0 0 28.512-28.573 28.512 28.512 0 1 0-57.025 0 42.158 42.158 0 0 1-42.148 42.239 28.389 28.389 0 0 0-28.512 28.573 42.158 42.158 0 0 1-42.149 42.238 28.573 28.573 0 0 0 0 57.146z" transform="translate(2119.832 424.865)" style="fill:#fff"/>
            <path data-name="Path 1116" d="M28.512 198.767a28.389 28.389 0 0 0 28.512-28.573 42.158 42.158 0 0 1 42.149-42.238 28.389 28.389 0 0 0 28.512-28.573 42.158 42.158 0 0 1 42.149-42.238 28.389 28.389 0 0 0 28.512-28.573 28.512 28.512 0 1 0-57.025 0 42.158 42.158 0 0 1-42.148 42.239 28.389 28.389 0 0 0-28.512 28.572 42.158 42.158 0 0 1-42.149 42.238 28.573 28.573 0 0 0 0 57.146z" transform="translate(2119.832 566.486)" style="fill:#fff"/>
            <path data-name="Path 1117" d="M57.025 28.573a42.158 42.158 0 0 0 42.148 42.238 28.573 28.573 0 1 1-28.512 28.572 42.158 42.158 0 0 0-42.149-42.238A28.389 28.389 0 0 1 0 28.573a28.512 28.512 0 1 1 57.025 0z" transform="translate(2190.493 495.676)" style="fill:#fff"/>
            <path data-name="Path 1118" d="M169.834 198.767a28.389 28.389 0 0 1-28.512-28.573 42.158 42.158 0 0 0-42.149-42.238 28.389 28.389 0 0 1-28.512-28.573 42.158 42.158 0 0 0-42.149-42.238A28.389 28.389 0 0 1 0 28.573a28.512 28.512 0 1 1 57.025 0 42.158 42.158 0 0 0 42.148 42.238 28.389 28.389 0 0 1 28.512 28.573 42.158 42.158 0 0 0 42.149 42.238 28.573 28.573 0 0 1 0 57.146z" transform="translate(2119.832 566.486)" style="fill:#fff"/>
            <path data-name="Path 1119" d="M169.835 198.767a28.389 28.389 0 0 1-28.512-28.573 42.158 42.158 0 0 0-42.149-42.238 28.389 28.389 0 0 1-28.513-28.573 42.158 42.158 0 0 0-42.149-42.238A28.389 28.389 0 0 1 0 28.573a28.512 28.512 0 1 1 57.025 0 42.158 42.158 0 0 0 42.148 42.238 28.389 28.389 0 0 1 28.512 28.573 42.158 42.158 0 0 0 42.149 42.238 28.573 28.573 0 0 1 0 57.146z" transform="translate(1978.51 566.486)" style="fill:#fff"/>
            <path data-name="Path 1120" d="M169.834 198.767a28.389 28.389 0 0 1-28.512-28.573 42.158 42.158 0 0 0-42.149-42.238 28.389 28.389 0 0 1-28.512-28.573 42.158 42.158 0 0 0-42.149-42.238A28.389 28.389 0 0 1 0 28.573a28.512 28.512 0 1 1 57.025 0 42.158 42.158 0 0 0 42.148 42.238 28.389 28.389 0 0 1 28.512 28.573 42.158 42.158 0 0 0 42.149 42.238 28.573 28.573 0 0 1 0 57.146z" transform="translate(2049.171 354.054)" style="fill:#fff"/>
            <path data-name="Path 1121" d="M28.512 198.767a28.389 28.389 0 0 0 28.512-28.573 42.158 42.158 0 0 1 42.149-42.238 28.389 28.389 0 0 0 28.512-28.573 42.158 42.158 0 0 1 42.149-42.238 28.389 28.389 0 0 0 28.512-28.573 28.512 28.512 0 1 0-57.025 0 42.158 42.158 0 0 1-42.148 42.239 28.389 28.389 0 0 0-28.512 28.572 42.158 42.158 0 0 1-42.149 42.238 28.573 28.573 0 0 0 0 57.146z" transform="translate(2119.832 283.243)" style="fill:#fff"/>
            <path data-name="Path 1122" d="M169.834 198.767a28.389 28.389 0 0 1-28.512-28.573 42.158 42.158 0 0 0-42.149-42.238 28.389 28.389 0 0 1-28.512-28.572 42.158 42.158 0 0 0-42.149-42.238A28.389 28.389 0 0 1 0 28.573a28.512 28.512 0 1 1 57.025 0 42.158 42.158 0 0 0 42.148 42.238 28.389 28.389 0 0 1 28.512 28.573 42.158 42.158 0 0 0 42.149 42.238 28.573 28.573 0 0 1 0 57.145z" transform="translate(2049.171 212.433)" style="fill:#fff"/>
            <path data-name="Path 1123" d="M70.661 28.573a42.158 42.158 0 0 1-42.149 42.238 28.573 28.573 0 1 0 28.513 28.573 42.158 42.158 0 0 1 42.148-42.238 28.389 28.389 0 0 0 28.512-28.573 28.513 28.513 0 1 0-57.025 0z" transform="translate(2119.832 212.433)" style="fill:#fff"/>
            <path data-name="Path 1124" d="M28.512 198.767a28.389 28.389 0 0 0 28.512-28.573 42.158 42.158 0 0 1 42.149-42.238 28.389 28.389 0 0 0 28.512-28.573 42.158 42.158 0 0 1 42.149-42.238 28.389 28.389 0 0 0 28.512-28.573 28.512 28.512 0 1 0-57.025 0 42.158 42.158 0 0 1-42.148 42.239 28.389 28.389 0 0 0-28.512 28.572 42.158 42.158 0 0 1-42.149 42.238 28.573 28.573 0 0 0 0 57.146z" transform="translate(1978.51 283.243)" style="fill:#fff"/>
            <path data-name="Path 1125" d="M70.661 28.573a42.158 42.158 0 0 1-42.149 42.238 28.573 28.573 0 1 0 28.513 28.573 42.158 42.158 0 0 1 42.148-42.238 28.389 28.389 0 0 0 28.512-28.573 28.512 28.512 0 1 0-57.024 0z" transform="translate(1978.51 212.433)" style="fill:#fff"/>
            <path data-name="Path 1126" d="M28.512 198.767a28.389 28.389 0 0 0 28.512-28.573 42.158 42.158 0 0 1 42.149-42.238 28.389 28.389 0 0 0 28.512-28.573 42.158 42.158 0 0 1 42.149-42.238 28.389 28.389 0 0 0 28.512-28.573 28.512 28.512 0 1 0-57.025 0 42.158 42.158 0 0 1-42.147 42.239 28.389 28.389 0 0 0-28.513 28.572 42.158 42.158 0 0 1-42.149 42.238 28.573 28.573 0 0 0 0 57.146z" transform="translate(1837.188 283.243)" style="fill:#fff"/>
            <path data-name="Path 1127" d="M169.834 198.767a28.389 28.389 0 0 1-28.512-28.573 42.158 42.158 0 0 0-42.149-42.238 28.389 28.389 0 0 1-28.512-28.572 42.158 42.158 0 0 0-42.149-42.238A28.389 28.389 0 0 1 0 28.573a28.512 28.512 0 1 1 57.025 0 42.158 42.158 0 0 0 42.148 42.238 28.389 28.389 0 0 1 28.512 28.573 42.158 42.158 0 0 0 42.149 42.238 28.573 28.573 0 0 1 0 57.145z" transform="translate(1907.849 212.433)" style="fill:#fff"/>
            <path data-name="Path 1128" d="M28.512 198.767a28.389 28.389 0 0 0 28.512-28.573 42.158 42.158 0 0 1 42.149-42.238 28.389 28.389 0 0 0 28.512-28.573 42.158 42.158 0 0 1 42.149-42.238 28.389 28.389 0 0 0 28.512-28.573 28.512 28.512 0 1 0-57.025 0 42.158 42.158 0 0 1-42.148 42.239 28.389 28.389 0 0 0-28.512 28.572 42.158 42.158 0 0 1-42.149 42.238 28.573 28.573 0 0 0 0 57.146z" transform="translate(1978.51 566.486)" style="fill:#fff"/>
            <path data-name="Path 1129" d="M169.835 198.767a28.389 28.389 0 0 1-28.512-28.573 42.158 42.158 0 0 0-42.149-42.238 28.389 28.389 0 0 1-28.513-28.572 42.158 42.158 0 0 0-42.149-42.238A28.389 28.389 0 0 1 0 28.573a28.512 28.512 0 1 1 57.025 0 42.158 42.158 0 0 0 42.148 42.238 28.389 28.389 0 0 1 28.512 28.573 42.158 42.158 0 0 0 42.149 42.238 28.573 28.573 0 0 1 0 57.146z" transform="translate(1978.51 424.865)" style="fill:#fff"/>
            <path data-name="Path 1130" d="M28.512 198.767a28.389 28.389 0 0 0 28.512-28.573 42.158 42.158 0 0 1 42.149-42.238 28.389 28.389 0 0 0 28.512-28.573 42.158 42.158 0 0 1 42.149-42.238 28.389 28.389 0 0 0 28.512-28.573 28.512 28.512 0 1 0-57.025 0 42.158 42.158 0 0 1-42.147 42.239 28.389 28.389 0 0 0-28.513 28.572 42.158 42.158 0 0 1-42.149 42.238 28.573 28.573 0 0 0 0 57.146z" transform="translate(1837.188 566.486)" style="fill:#fff"/>
            <path data-name="Path 1131" d="M57.025 28.573a42.158 42.158 0 0 0 42.149 42.238 28.573 28.573 0 1 1-28.513 28.572 42.158 42.158 0 0 0-42.149-42.238A28.389 28.389 0 0 1 0 28.573a28.512 28.512 0 1 1 57.025 0z" transform="translate(1837.188 566.486)" style="fill:#fff"/>
            <path data-name="Path 1132" d="M28.512 198.767a28.389 28.389 0 0 0 28.512-28.573 42.158 42.158 0 0 1 42.149-42.238 28.389 28.389 0 0 0 28.512-28.573 42.158 42.158 0 0 1 42.149-42.238 28.389 28.389 0 0 0 28.512-28.573 28.512 28.512 0 1 0-57.025 0 42.158 42.158 0 0 1-42.147 42.239 28.389 28.389 0 0 0-28.513 28.573 42.158 42.158 0 0 1-42.149 42.238 28.573 28.573 0 0 0 0 57.146z" transform="translate(1837.188 424.865)" style="fill:#fff"/>
            <path data-name="Path 1133" d="M57.025 28.573a42.158 42.158 0 0 0 42.149 42.238 28.573 28.573 0 1 1-28.513 28.573 42.158 42.158 0 0 0-42.149-42.238A28.389 28.389 0 0 1 0 28.573a28.512 28.512 0 1 1 57.025 0z" transform="translate(1837.188 424.865)" style="fill:#fff"/>
            <path data-name="Path 1134" d="M28.512 198.767a28.389 28.389 0 0 0 28.512-28.573 42.158 42.158 0 0 1 42.149-42.238 28.389 28.389 0 0 0 28.513-28.573 42.158 42.158 0 0 1 42.148-42.238 28.389 28.389 0 0 0 28.512-28.573 28.512 28.512 0 1 0-57.025 0 42.158 42.158 0 0 1-42.148 42.239 28.389 28.389 0 0 0-28.512 28.572 42.158 42.158 0 0 1-42.149 42.238 28.573 28.573 0 0 0 0 57.146z" transform="translate(1695.866 566.486)" style="fill:#fff"/>
            <path data-name="Path 1135" d="M57.025 28.573a42.158 42.158 0 0 0 42.149 42.238 28.573 28.573 0 1 1-28.513 28.573 42.158 42.158 0 0 0-42.149-42.238A28.389 28.389 0 0 1 0 28.573a28.512 28.512 0 1 1 57.025 0z" transform="translate(1837.188 283.243)" style="fill:#fff"/>
            <path data-name="Path 1136" d="M28.512 198.767a28.389 28.389 0 0 0 28.512-28.573 42.158 42.158 0 0 1 42.149-42.238 28.389 28.389 0 0 0 28.513-28.573 42.158 42.158 0 0 1 42.149-42.238 28.389 28.389 0 0 0 28.512-28.573 28.512 28.512 0 1 0-57.025 0 42.158 42.158 0 0 1-42.149 42.239 28.389 28.389 0 0 0-28.512 28.573 42.158 42.158 0 0 1-42.149 42.238 28.573 28.573 0 0 0 0 57.145z" transform="translate(1766.526 212.433)" style="fill:#fff"/>
            <path data-name="Path 1137" d="M28.512 198.767a28.389 28.389 0 0 0 28.512-28.573 42.158 42.158 0 0 1 42.149-42.238 28.389 28.389 0 0 0 28.512-28.573 42.158 42.158 0 0 1 42.149-42.238 28.389 28.389 0 0 0 28.512-28.573 28.512 28.512 0 1 0-57.025 0 42.158 42.158 0 0 1-42.148 42.239 28.389 28.389 0 0 0-28.512 28.573 42.158 42.158 0 0 1-42.149 42.238 28.573 28.573 0 0 0 0 57.145z" transform="translate(1625.205 212.433)" style="fill:#fff"/>
            <path data-name="Path 1138" d="M28.512 198.767a28.389 28.389 0 0 0 28.512-28.573 42.158 42.158 0 0 1 42.149-42.238 28.389 28.389 0 0 0 28.513-28.573 42.158 42.158 0 0 1 42.148-42.238 28.389 28.389 0 0 0 28.512-28.573 28.512 28.512 0 1 0-57.025 0 42.158 42.158 0 0 1-42.148 42.239 28.389 28.389 0 0 0-28.512 28.573 42.158 42.158 0 0 1-42.149 42.238 28.573 28.573 0 0 0 0 57.146z" transform="translate(1695.866 424.865)" style="fill:#fff"/>
            <path data-name="Path 1139" d="M57.025 28.573a42.158 42.158 0 0 0 42.148 42.238 28.573 28.573 0 1 1-28.512 28.572 42.158 42.158 0 0 0-42.149-42.238A28.389 28.389 0 0 1 0 28.573a28.512 28.512 0 1 1 57.025 0z" transform="translate(1695.122 566.486)" style="fill:#fff"/>
            <path data-name="Path 1140" d="M28.512 198.767a28.389 28.389 0 0 0 28.512-28.573 42.158 42.158 0 0 1 42.149-42.238 28.389 28.389 0 0 0 28.512-28.573 42.158 42.158 0 0 1 42.149-42.238 28.389 28.389 0 0 0 28.512-28.573 28.512 28.512 0 1 0-57.025 0 42.158 42.158 0 0 1-42.148 42.239 28.389 28.389 0 0 0-28.512 28.572 42.158 42.158 0 0 1-42.149 42.238 28.573 28.573 0 0 0 0 57.146z" transform="translate(1625.205 354.054)" style="fill:#fff"/>
            <path data-name="Path 1141" d="M57.025 28.573a42.158 42.158 0 0 0 42.148 42.238 28.573 28.573 0 1 1-28.512 28.573 42.158 42.158 0 0 0-42.149-42.238A28.389 28.389 0 0 1 0 28.573a28.512 28.512 0 1 1 57.025 0z" transform="translate(1695.866 283.243)" style="fill:#fff"/>
            <path data-name="Path 1142" d="M28.512 198.767a28.389 28.389 0 0 0 28.512-28.573 42.158 42.158 0 0 1 42.149-42.238 28.389 28.389 0 0 0 28.512-28.573 42.158 42.158 0 0 1 42.149-42.238 28.389 28.389 0 0 0 28.512-28.573 28.512 28.512 0 1 0-57.024 0 42.158 42.158 0 0 1-42.149 42.239 28.389 28.389 0 0 0-28.512 28.573 42.158 42.158 0 0 1-42.149 42.238 28.573 28.573 0 0 0 0 57.145z" transform="translate(1483.882 212.433)" style="fill:#fff"/>
            <path data-name="Path 1143" d="M169.834 198.767a28.389 28.389 0 0 1-28.512-28.573 42.158 42.158 0 0 0-42.149-42.238 28.389 28.389 0 0 1-28.512-28.572 42.158 42.158 0 0 0-42.149-42.238A28.389 28.389 0 0 1 0 28.573a28.512 28.512 0 1 1 57.025 0 42.158 42.158 0 0 0 42.148 42.238 28.389 28.389 0 0 1 28.512 28.573 42.158 42.158 0 0 0 42.149 42.238 28.573 28.573 0 0 1 0 57.145z" transform="translate(1483.882 212.433)" style="fill:#fff"/>
            <path data-name="Path 1144" d="M169.834 198.767a28.389 28.389 0 0 1-28.512-28.573 42.158 42.158 0 0 0-42.149-42.238 28.389 28.389 0 0 1-28.512-28.573 42.158 42.158 0 0 0-42.149-42.238A28.389 28.389 0 0 1 0 28.573a28.512 28.512 0 1 1 57.025 0 42.158 42.158 0 0 0 42.148 42.238 28.389 28.389 0 0 1 28.512 28.573 42.158 42.158 0 0 0 42.149 42.238 28.573 28.573 0 0 1 0 57.146z" transform="translate(1483.882 354.054)" style="fill:#fff"/>
            <path data-name="Path 1145" d="M28.512 198.767a28.389 28.389 0 0 0 28.512-28.573 42.158 42.158 0 0 1 42.149-42.238 28.389 28.389 0 0 0 28.512-28.573 42.158 42.158 0 0 1 42.149-42.238 28.389 28.389 0 0 0 28.512-28.573 28.512 28.512 0 1 0-57.024 0 42.158 42.158 0 0 1-42.149 42.239 28.389 28.389 0 0 0-28.512 28.572 42.158 42.158 0 0 1-42.149 42.238 28.573 28.573 0 0 0 0 57.146z" transform="translate(1483.882 495.676)" style="fill:#fff"/>
            <path data-name="Path 1146" d="M28.512 198.767a28.389 28.389 0 0 0 28.512-28.573 42.158 42.158 0 0 1 42.149-42.238 28.389 28.389 0 0 0 28.512-28.573 42.158 42.158 0 0 1 42.149-42.238 28.389 28.389 0 0 0 28.512-28.573 28.512 28.512 0 1 0-57.025 0 42.158 42.158 0 0 1-42.148 42.239 28.389 28.389 0 0 0-28.512 28.572 42.158 42.158 0 0 1-42.149 42.238 28.573 28.573 0 0 0 0 57.146z" transform="translate(1554.543 566.486)" style="fill:#fff"/>
            <path data-name="Path 1147" d="M169.834 198.767a28.389 28.389 0 0 1-28.512-28.573 42.158 42.158 0 0 0-42.149-42.238 28.389 28.389 0 0 1-28.512-28.573 42.158 42.158 0 0 0-42.149-42.238A28.389 28.389 0 0 1 0 28.573a28.512 28.512 0 1 1 57.025 0 42.158 42.158 0 0 0 42.148 42.238 28.389 28.389 0 0 1 28.512 28.573 42.158 42.158 0 0 0 42.149 42.238 28.573 28.573 0 0 1 0 57.146z" transform="translate(1483.882 495.676)" style="fill:#fff"/>
            <path data-name="Path 1148" d="M169.835 198.767a28.389 28.389 0 0 1-28.512-28.573 42.158 42.158 0 0 0-42.149-42.238 28.389 28.389 0 0 1-28.513-28.572 42.158 42.158 0 0 0-42.149-42.238A28.389 28.389 0 0 1 0 28.573a28.512 28.512 0 1 1 57.025 0 42.158 42.158 0 0 0 42.148 42.238 28.389 28.389 0 0 1 28.512 28.573 42.158 42.158 0 0 0 42.149 42.238 28.573 28.573 0 0 1 0 57.145z" transform="translate(1342.56 212.433)" style="fill:#fff"/>
            <path data-name="Path 1149" d="M169.834 57.146a42.238 42.238 0 0 0 0 84.476 28.573 28.573 0 1 1-28.512 28.573 42.158 42.158 0 0 0-42.149-42.238 28.389 28.389 0 0 1-28.512-28.574 42.158 42.158 0 0 0-42.149-42.237A28.389 28.389 0 0 1 0 28.573a28.512 28.512 0 1 1 57.025 0 42.149 42.149 0 1 0 84.3 0 28.512 28.512 0 1 1 28.512 28.573z" transform="translate(1271.899 283.243)" style="fill:#fff"/>
            <path data-name="Path 1150" d="M70.661 28.573a42.158 42.158 0 0 1-42.149 42.238 28.573 28.573 0 1 0 28.513 28.573 42.158 42.158 0 0 1 42.148-42.238 28.389 28.389 0 0 0 28.512-28.573 28.512 28.512 0 1 0-57.025 0z" transform="translate(1342.56 424.865)" style="fill:#fff"/>
            <path data-name="Path 1151" d="M57.025 28.573a42.158 42.158 0 0 0 42.148 42.238 28.573 28.573 0 1 1-28.512 28.573 42.158 42.158 0 0 0-42.149-42.238A28.389 28.389 0 0 1 0 28.573a28.512 28.512 0 1 1 57.025 0z" transform="translate(1413.221 424.865)" style="fill:#fff"/>
            <path data-name="Path 1152" d="M169.835 198.767a28.389 28.389 0 0 1-28.512-28.573 42.158 42.158 0 0 0-42.149-42.238 28.389 28.389 0 0 1-28.513-28.573 42.158 42.158 0 0 0-42.149-42.238A28.389 28.389 0 0 1 0 28.573a28.512 28.512 0 1 1 57.025 0 42.158 42.158 0 0 0 42.148 42.238 28.389 28.389 0 0 1 28.512 28.573 42.158 42.158 0 0 0 42.149 42.238 28.573 28.573 0 0 1 0 57.146z" transform="translate(1413.221 566.486)" style="fill:#fff"/>
            <path data-name="Path 1153" d="M70.661 28.573a42.158 42.158 0 0 1-42.149 42.238 28.573 28.573 0 1 0 28.513 28.572 42.158 42.158 0 0 1 42.148-42.238 28.389 28.389 0 0 0 28.512-28.573 28.512 28.512 0 1 0-57.025 0z" transform="translate(1342.56 566.486)" style="fill:#fff"/>
            <path data-name="Path 1154" d="M57.025 28.573a42.158 42.158 0 0 0 42.148 42.238 28.573 28.573 0 1 1-28.512 28.572 42.158 42.158 0 0 0-42.149-42.238A28.389 28.389 0 0 1 0 28.573a28.512 28.512 0 1 1 57.025 0z" transform="translate(1342.56 495.676)" style="fill:#fff"/>
            <path data-name="Path 1155" d="M169.835 198.767a28.389 28.389 0 0 1-28.512-28.573 42.158 42.158 0 0 0-42.149-42.238 28.389 28.389 0 0 1-28.513-28.573 42.158 42.158 0 0 0-42.149-42.238A28.389 28.389 0 0 1 0 28.573a28.512 28.512 0 1 1 57.025 0 42.158 42.158 0 0 0 42.148 42.238 28.389 28.389 0 0 1 28.512 28.573 42.158 42.158 0 0 0 42.149 42.238 28.573 28.573 0 0 1 0 57.146z" transform="translate(1201.238 354.054)" style="fill:#fff"/>
            <path data-name="Path 1156" d="M70.661 28.573a42.158 42.158 0 0 1-42.149 42.238 28.573 28.573 0 1 0 28.513 28.573 42.158 42.158 0 0 1 42.148-42.238 28.389 28.389 0 0 0 28.512-28.573 28.512 28.512 0 1 0-57.025 0z" transform="translate(1201.238 283.243)" style="fill:#fff"/>
            <path data-name="Path 1157" d="M169.834 198.767a28.389 28.389 0 0 1-28.512-28.573 42.158 42.158 0 0 0-42.149-42.238 28.389 28.389 0 0 1-28.512-28.572 42.158 42.158 0 0 0-42.149-42.238A28.389 28.389 0 0 1 0 28.573a28.512 28.512 0 1 1 57.025 0 42.158 42.158 0 0 0 42.148 42.238 28.389 28.389 0 0 1 28.512 28.573 42.158 42.158 0 0 0 42.149 42.238 28.573 28.573 0 0 1 0 57.145z" transform="translate(1059.916 212.433)" style="fill:#fff"/>
            <path data-name="Path 1158" d="M169.835 198.767a28.389 28.389 0 0 1-28.512-28.573 42.158 42.158 0 0 0-42.149-42.238 28.389 28.389 0 0 1-28.513-28.572 42.158 42.158 0 0 0-42.149-42.238A28.389 28.389 0 0 1 0 28.573a28.512 28.512 0 1 1 57.025 0 42.158 42.158 0 0 0 42.148 42.238 28.389 28.389 0 0 1 28.512 28.573 42.158 42.158 0 0 0 42.149 42.238 28.573 28.573 0 0 1 0 57.145z" transform="translate(1413.221)" style="fill:#fff"/>
            <path data-name="Path 1159" d="M70.661 28.573a42.158 42.158 0 0 1-42.149 42.238 28.573 28.573 0 1 0 28.513 28.573 42.158 42.158 0 0 1 42.148-42.238 28.389 28.389 0 0 0 28.512-28.573 28.512 28.512 0 1 0-57.025 0z" transform="translate(1201.238 424.865)" style="fill:#fff"/>
            <path data-name="Path 1160" d="M70.661 28.573a42.158 42.158 0 0 1-42.149 42.238 28.573 28.573 0 1 0 28.513 28.573 42.158 42.158 0 0 1 42.148-42.238 28.389 28.389 0 0 0 28.512-28.573 28.512 28.512 0 1 0-57.025 0z" transform="translate(1059.916 283.243)" style="fill:#fff"/>
            <path data-name="Path 1161" d="M28.512 198.767a28.389 28.389 0 0 0 28.512-28.573 42.158 42.158 0 0 1 42.149-42.238 28.389 28.389 0 0 0 28.512-28.573 42.158 42.158 0 0 1 42.149-42.238 28.389 28.389 0 0 0 28.512-28.573 28.512 28.512 0 1 0-57.025 0 42.158 42.158 0 0 1-42.148 42.239 28.389 28.389 0 0 0-28.512 28.572 42.158 42.158 0 0 1-42.149 42.238 28.573 28.573 0 0 0 0 57.146z" transform="translate(989.255 141.622)" style="fill:#fff"/>
            <path data-name="Path 1162" d="M28.512 198.767a28.389 28.389 0 0 0 28.512-28.573 42.158 42.158 0 0 1 42.149-42.238 28.389 28.389 0 0 0 28.512-28.573 42.158 42.158 0 0 1 42.149-42.238 28.389 28.389 0 0 0 28.512-28.573 28.512 28.512 0 1 0-57.025 0 42.158 42.158 0 0 1-42.148 42.239 28.389 28.389 0 0 0-28.512 28.573 42.158 42.158 0 0 1-42.149 42.238 28.573 28.573 0 0 0 0 57.145z" transform="translate(1130.577)" style="fill:#fff"/>
            <path data-name="Union 1" d="M211.983 28.573a42.158 42.158 0 0 1-42.149 42.238 28.388 28.388 0 0 0-28.511 28.572 42.149 42.149 0 1 1-42.15-42.237 28.39 28.39 0 0 0 28.513-28.573 28.513 28.513 0 1 0-57.026 0 42.158 42.158 0 0 1-42.147 42.238 28.573 28.573 0 0 0 0 57.145 42.238 42.238 0 0 1 0 84.475 28.573 28.573 0 1 0 28.511 28.573 42.159 42.159 0 0 1 42.149-42.238 28.389 28.389 0 0 0 28.513-28.572 42.158 42.158 0 0 1 42.148-42.238 28.39 28.39 0 0 0 28.513-28.573A42.158 42.158 0 0 1 240.5 57.146a28.389 28.389 0 0 0 28.512-28.573 28.512 28.512 0 1 0-57.025 0z" transform="translate(494.628)" style="fill:#fff"/>
            <path data-name="Path 1164" d="M28.512 198.767a28.389 28.389 0 0 0 28.512-28.573 42.158 42.158 0 0 1 42.149-42.238 28.389 28.389 0 0 0 28.512-28.573 42.158 42.158 0 0 1 42.149-42.238 28.389 28.389 0 0 0 28.512-28.573 28.512 28.512 0 1 0-57.025 0 42.158 42.158 0 0 1-42.148 42.239 28.389 28.389 0 0 0-28.512 28.572 42.158 42.158 0 0 1-42.149 42.238 28.573 28.573 0 0 0 0 57.146z" transform="translate(847.933 283.243)" style="fill:#fff"/>
            <path data-name="Path 1165" d="M28.512 198.767a28.389 28.389 0 0 0 28.512-28.573 42.158 42.158 0 0 1 42.149-42.238 28.389 28.389 0 0 0 28.512-28.573 42.158 42.158 0 0 1 42.149-42.238 28.389 28.389 0 0 0 28.512-28.573 28.512 28.512 0 1 0-57.025 0 42.158 42.158 0 0 1-42.148 42.239 28.389 28.389 0 0 0-28.512 28.573 42.158 42.158 0 0 1-42.149 42.238 28.573 28.573 0 0 0 0 57.145z" transform="translate(777.272 212.433)" style="fill:#fff"/>
            <path data-name="Path 1166" d="M57.025 28.573a42.158 42.158 0 0 0 42.148 42.238 28.573 28.573 0 1 1-28.512 28.573 42.158 42.158 0 0 0-42.149-42.238A28.389 28.389 0 0 1 0 28.573a28.512 28.512 0 1 1 57.025 0z" transform="translate(847.933 283.243)" style="fill:#fff"/>
            <path data-name="Path 1167" d="M57.025 28.573a42.158 42.158 0 0 0 42.148 42.238 28.573 28.573 0 1 1-28.512 28.572 42.158 42.158 0 0 0-42.149-42.238A28.389 28.389 0 0 1 0 28.573a28.512 28.512 0 1 1 57.025 0z" transform="translate(1271.899)" style="fill:#fff"/>
            <path data-name="Path 1168" d="M70.661 28.573a42.158 42.158 0 0 1-42.149 42.238 28.573 28.573 0 1 0 28.513 28.573 42.158 42.158 0 0 1 42.148-42.238 28.389 28.389 0 0 0 28.512-28.573 28.512 28.512 0 1 0-57.025 0z" transform="translate(918.594 424.865)" style="fill:#fff"/>
            <path data-name="Path 1169" d="M70.661 28.573a42.158 42.158 0 0 1-42.149 42.238 28.573 28.573 0 1 0 28.513 28.572 42.158 42.158 0 0 1 42.148-42.237 28.389 28.389 0 0 0 28.512-28.573 28.512 28.512 0 1 0-57.025 0z" transform="translate(1271.899 70.811)" style="fill:#fff"/>
            <path data-name="Path 1170" d="M57.025 28.573a42.158 42.158 0 0 0 42.148 42.238 28.573 28.573 0 1 1-28.512 28.572 42.158 42.158 0 0 0-42.149-42.238A28.389 28.389 0 0 1 0 28.573a28.512 28.512 0 1 1 57.025 0z" transform="translate(1554.543)" style="fill:#fff"/>
            <path data-name="Path 1171" d="M28.512 198.767a28.389 28.389 0 0 0 28.512-28.573 42.158 42.158 0 0 1 42.149-42.238 28.389 28.389 0 0 0 28.512-28.573 42.158 42.158 0 0 1 42.149-42.238 28.389 28.389 0 0 0 28.512-28.573 28.512 28.512 0 1 0-57.025 0 42.158 42.158 0 0 1-42.148 42.239 28.389 28.389 0 0 0-28.512 28.573 42.158 42.158 0 0 1-42.149 42.238 28.573 28.573 0 0 0 0 57.145z" transform="translate(1554.543)" style="fill:#fff"/>
            <path data-name="Path 1172" d="M57.025 28.573a42.158 42.158 0 0 0 42.148 42.238 28.573 28.573 0 1 1-28.512 28.572 42.158 42.158 0 0 0-42.149-42.238A28.389 28.389 0 0 1 0 28.573a28.512 28.512 0 1 1 57.025 0z" transform="translate(1695.866)" style="fill:#fff"/>
            <path data-name="Path 1173" d="M70.661 28.573a42.158 42.158 0 0 1-42.149 42.238 28.573 28.573 0 1 0 28.513 28.572 42.158 42.158 0 0 1 42.148-42.238 28.389 28.389 0 0 0 28.513-28.573 28.512 28.512 0 1 0-57.025 0z" transform="translate(1766.526)" style="fill:#fff"/>
            <path data-name="Path 1174" d="M70.661 28.573a42.158 42.158 0 0 1-42.149 42.238 28.573 28.573 0 1 0 28.513 28.573 42.158 42.158 0 0 1 42.148-42.238 28.389 28.389 0 0 0 28.512-28.573 28.512 28.512 0 1 0-57.025 0z" transform="translate(1483.882 424.865)" style="fill:#fff"/>
            <g data-name="Group 602">
                <path data-name="Path 1175" d="M57.025 28.573a42.158 42.158 0 0 0 42.149 42.238 28.573 28.573 0 1 1-28.513 28.572 42.158 42.158 0 0 0-42.149-42.238A28.389 28.389 0 0 1 0 28.573a28.512 28.512 0 1 1 57.025 0z" transform="translate(1837.188)" style="fill:#fff"/>
                <g data-name="Group 601">
                    <path data-name="Path 1176" d="M28.512 198.767a28.389 28.389 0 0 0 28.512-28.573 42.158 42.158 0 0 1 42.149-42.238 28.389 28.389 0 0 0 28.512-28.573 42.158 42.158 0 0 1 42.149-42.238 28.389 28.389 0 0 0 28.512-28.573 28.512 28.512 0 1 0-57.025 0 42.158 42.158 0 0 1-42.147 42.239 28.389 28.389 0 0 0-28.513 28.573 42.158 42.158 0 0 1-42.149 42.238 28.573 28.573 0 0 0 0 57.145z" transform="translate(1837.188)" style="fill:#fff"/>
                    <path data-name="Path 1177" d="M57.025 28.573a42.158 42.158 0 0 0 42.148 42.238 28.573 28.573 0 1 1-28.512 28.572 42.158 42.158 0 0 0-42.149-42.238A28.389 28.389 0 0 1 0 28.573a28.512 28.512 0 1 1 57.025 0z" transform="translate(1978.51)" style="fill:#fff"/>
                    <path data-name="Path 1178" d="M70.661 28.573a42.158 42.158 0 0 1-42.149 42.238 28.573 28.573 0 1 0 28.513 28.572 42.158 42.158 0 0 1 42.148-42.237 28.389 28.389 0 0 0 28.512-28.573 28.512 28.512 0 1 0-57.024 0z" transform="translate(1978.51 70.811)" style="fill:#fff"/>
                </g>
            </g>
            <g data-name="Group 605">
                <path data-name="Path 1179" d="M70.661 28.573a42.158 42.158 0 0 1-42.149 42.238 28.573 28.573 0 1 0 28.513 28.572 42.158 42.158 0 0 1 42.148-42.238 28.389 28.389 0 0 0 28.512-28.573 28.512 28.512 0 1 0-57.025 0z" transform="translate(2049.171)" style="fill:#fff"/>
                <g data-name="Group 604">
                    <path data-name="Path 1180" d="M57.025 28.573a42.158 42.158 0 0 0 42.148 42.238 28.573 28.573 0 1 1-28.512 28.572 42.158 42.158 0 0 0-42.149-42.238A28.389 28.389 0 0 1 0 28.573a28.512 28.512 0 1 1 57.025 0z" transform="translate(2119.832)" style="fill:#fff"/>
                    <g data-name="Group 603">
                        <path data-name="Path 1181" d="M28.512 198.767a28.389 28.389 0 0 0 28.512-28.573 42.158 42.158 0 0 1 42.149-42.238 28.389 28.389 0 0 0 28.512-28.573 42.158 42.158 0 0 1 42.149-42.238 28.389 28.389 0 0 0 28.512-28.573 28.512 28.512 0 1 0-57.025 0 42.158 42.158 0 0 1-42.148 42.239 28.389 28.389 0 0 0-28.512 28.573 42.158 42.158 0 0 1-42.149 42.238 28.573 28.573 0 0 0 0 57.145z" transform="translate(2119.832)" style="fill:#fff"/>
                        <path data-name="Path 1182" d="M57.025 28.573a42.158 42.158 0 0 0 42.149 42.238 28.573 28.573 0 1 1-28.513 28.572 42.158 42.158 0 0 0-42.149-42.238A28.389 28.389 0 0 1 0 28.573a28.512 28.512 0 1 1 57.025 0z" transform="translate(2261.154)" style="fill:#fff"/>
                        <path data-name="Path 1183" d="M70.661 28.573a42.158 42.158 0 0 1-42.149 42.238 28.573 28.573 0 1 0 28.513 28.572 42.158 42.158 0 0 1 42.149-42.237 28.389 28.389 0 0 0 28.512-28.573 28.512 28.512 0 1 0-57.025 0z" transform="translate(2261.154 70.811)" style="fill:#fff"/>
                    </g>
                </g>
            </g>
            <path data-name="Path 1184" d="M70.661 28.573a42.158 42.158 0 0 1-42.149 42.238 28.573 28.573 0 1 0 28.513 28.572 42.158 42.158 0 0 1 42.149-42.238 28.389 28.389 0 0 0 28.512-28.573 28.513 28.513 0 1 0-57.025 0z" transform="translate(2331.815)" style="fill:#fff"/>
            <path data-name="Path 1185" d="M57.025 28.573a42.158 42.158 0 0 0 42.148 42.238 28.573 28.573 0 1 1-28.512 28.572 42.158 42.158 0 0 0-42.149-42.238A28.389 28.389 0 0 1 0 28.573a28.512 28.512 0 1 1 57.025 0z" transform="translate(2402.476)" style="fill:#fff"/>
            <path data-name="Path 1186" d="M28.512 198.767a28.389 28.389 0 0 0 28.512-28.573 42.158 42.158 0 0 1 42.149-42.238 28.389 28.389 0 0 0 28.512-28.573 42.158 42.158 0 0 1 42.149-42.238 28.389 28.389 0 0 0 28.512-28.573 28.512 28.512 0 1 0-57.025 0 42.158 42.158 0 0 1-42.148 42.239 28.389 28.389 0 0 0-28.512 28.573 42.158 42.158 0 0 1-42.149 42.238 28.573 28.573 0 0 0 0 57.145z" transform="translate(2402.476)" style="fill:#fff"/>
            <path data-name="Path 1187" d="M57.025 28.573a42.158 42.158 0 0 0 42.148 42.238 28.573 28.573 0 1 1-28.512 28.572 42.158 42.158 0 0 0-42.149-42.238A28.389 28.389 0 0 1 0 28.573a28.512 28.512 0 1 1 57.025 0z" transform="translate(2543.799)" style="fill:#fff"/>
            <path data-name="Path 1188" d="M57.025 28.573a42.158 42.158 0 0 0 42.148 42.238 28.573 28.573 0 1 1-28.512 28.572 42.158 42.158 0 0 0-42.149-42.237A28.389 28.389 0 0 1 0 28.573a28.512 28.512 0 1 1 57.025 0z" transform="translate(2473.137 70.811)" style="fill:#fff"/>
            <path data-name="Path 1189" d="M57.025 28.573a42.158 42.158 0 0 0 42.149 42.238 28.573 28.573 0 1 1-28.513 28.572 42.158 42.158 0 0 0-42.149-42.237A28.389 28.389 0 0 1 0 28.573a28.512 28.512 0 1 1 57.025 0z" transform="translate(2331.815 70.811)" style="fill:#fff"/>
            <path data-name="Path 1190" d="M57.025 28.573a42.158 42.158 0 0 0 42.148 42.238 28.573 28.573 0 1 1-28.512 28.572 42.158 42.158 0 0 0-42.149-42.237A28.389 28.389 0 0 1 0 28.573a28.512 28.512 0 1 1 57.025 0z" transform="translate(2190.493 70.811)" style="fill:#fff"/>
            <path data-name="Path 1191" d="M57.025 28.573a42.158 42.158 0 0 0 42.149 42.238 28.573 28.573 0 1 1-28.513 28.572 42.158 42.158 0 0 0-42.148-42.237A28.389 28.389 0 0 1 0 28.573a28.512 28.512 0 1 1 57.025 0z" transform="translate(2614.46 70.811)" style="fill:#fff"/>
            <path data-name="Path 1192" d="M70.661 28.573a42.158 42.158 0 0 1-42.149 42.238 28.573 28.573 0 1 0 28.513 28.572 42.158 42.158 0 0 1 42.148-42.237 28.389 28.389 0 0 0 28.512-28.573 28.513 28.513 0 1 0-57.025 0z" transform="translate(2543.799 70.811)" style="fill:#fff"/>
            <path data-name="Path 1193" d="M70.661 28.573a42.158 42.158 0 0 1-42.148 42.238 28.573 28.573 0 1 0 28.512 28.572 42.158 42.158 0 0 1 42.149-42.238 28.389 28.389 0 0 0 28.512-28.573 28.512 28.512 0 1 0-57.025 0z" transform="translate(2614.46)" style="fill:#fff"/>
            <path data-name="Path 1194" d="M70.661 28.573a42.158 42.158 0 0 1-42.149 42.238 28.573 28.573 0 1 0 28.513 28.572 42.158 42.158 0 0 1 42.148-42.238 28.389 28.389 0 0 0 28.512-28.573 28.512 28.512 0 1 0-57.025 0z" transform="translate(1342.56)" style="fill:#fff"/>
            <path data-name="Path 1195" d="M70.661 28.573a42.158 42.158 0 0 1-42.149 42.238 28.573 28.573 0 1 0 28.513 28.572 42.158 42.158 0 0 1 42.148-42.237 28.389 28.389 0 0 0 28.512-28.573 28.512 28.512 0 1 0-57.025 0z" transform="translate(847.933 70.811)" style="fill:#fff"/>
            <path data-name="Path 1196" d="M28.512 198.767a28.389 28.389 0 0 0 28.512-28.573 42.158 42.158 0 0 1 42.149-42.238 28.389 28.389 0 0 0 28.512-28.573 42.158 42.158 0 0 1 42.149-42.238 28.389 28.389 0 0 0 28.512-28.573 28.512 28.512 0 1 0-57.025 0 42.158 42.158 0 0 1-42.148 42.239 28.389 28.389 0 0 0-28.512 28.573 42.158 42.158 0 0 1-42.149 42.238 28.573 28.573 0 0 0 0 57.146z" transform="translate(989.255 424.865)" style="fill:#fff"/>
            <path data-name="Path 1197" d="M70.661 28.573a42.158 42.158 0 0 1-42.149 42.238 28.573 28.573 0 1 0 28.513 28.572 42.158 42.158 0 0 1 42.148-42.238 28.389 28.389 0 0 0 28.512-28.573 28.512 28.512 0 1 0-57.025 0z" transform="translate(1201.238 566.486)" style="fill:#fff"/>
            <path data-name="Path 1198" d="M57.025 28.573a42.158 42.158 0 0 0 42.148 42.238 28.573 28.573 0 1 1-28.512 28.572 42.158 42.158 0 0 0-42.149-42.238A28.389 28.389 0 0 1 0 28.573a28.512 28.512 0 1 1 57.025 0z" transform="translate(1201.238 637.297)" style="fill:#fff"/>
            <path data-name="Path 1199" d="M169.834 198.767a28.389 28.389 0 0 1-28.512-28.573 42.158 42.158 0 0 0-42.149-42.238 28.389 28.389 0 0 1-28.512-28.573 42.158 42.158 0 0 0-42.149-42.238A28.389 28.389 0 0 1 0 28.573a28.512 28.512 0 1 1 57.025 0 42.158 42.158 0 0 0 42.148 42.238 28.389 28.389 0 0 1 28.512 28.573 42.158 42.158 0 0 0 42.149 42.238 28.573 28.573 0 0 1 0 57.146z" transform="translate(1059.916 495.676)" style="fill:#fff"/>
            <path data-name="Path 1200" d="M70.661 28.573a42.158 42.158 0 0 1-42.149 42.238 28.573 28.573 0 1 0 28.513 28.572 42.158 42.158 0 0 1 42.148-42.238 28.389 28.389 0 0 0 28.512-28.573 28.512 28.512 0 1 0-57.025 0z" transform="translate(1059.916 566.486)" style="fill:#fff"/>
            <path data-name="Path 1201" d="M452.479 482.01a28.389 28.389 0 0 1-28.512-28.573 42.158 42.158 0 0 0-42.149-42.237 28.389 28.389 0 0 1-28.512-28.573 42.158 42.158 0 0 0-42.149-42.238 28.389 28.389 0 0 1-28.512-28.573 42.158 42.158 0 0 0-42.145-42.238 28.389 28.389 0 0 1-28.512-28.573 42.158 42.158 0 0 0-42.149-42.238 28.389 28.389 0 0 1-28.512-28.573 42.158 42.158 0 0 0-42.149-42.238 28.389 28.389 0 0 1-28.517-28.572 42.158 42.158 0 0 0-42.149-42.238A28.389 28.389 0 0 1 0 28.573a28.512 28.512 0 1 1 57.025 0 42.158 42.158 0 0 0 42.148 42.238 28.389 28.389 0 0 1 28.512 28.573 42.158 42.158 0 0 0 42.149 42.238 28.389 28.389 0 0 1 28.512 28.573 42.158 42.158 0 0 0 42.154 42.237 28.389 28.389 0 0 1 28.512 28.573 42.158 42.158 0 0 0 42.149 42.238 28.389 28.389 0 0 1 28.512 28.573 42.158 42.158 0 0 0 42.149 42.238 28.389 28.389 0 0 1 28.512 28.573 42.158 42.158 0 0 0 42.149 42.238 28.573 28.573 0 0 1 0 57.146z" transform="translate(706.611 283.243)" style="fill:#fff"/>
            <path data-name="Path 1202" d="M452.478 482.01a28.389 28.389 0 0 1-28.512-28.573 42.158 42.158 0 0 0-42.148-42.237 28.389 28.389 0 0 1-28.512-28.573 42.158 42.158 0 0 0-42.149-42.238 28.389 28.389 0 0 1-28.512-28.573 42.158 42.158 0 0 0-42.145-42.238A28.389 28.389 0 0 1 211.983 241a42.158 42.158 0 0 0-42.149-42.238 28.389 28.389 0 0 1-28.513-28.573 42.158 42.158 0 0 0-42.149-42.238 28.389 28.389 0 0 1-28.511-28.568 42.158 42.158 0 0 0-42.149-42.238A28.389 28.389 0 0 1 0 28.573a28.512 28.512 0 1 1 57.025 0 42.158 42.158 0 0 0 42.148 42.238 28.389 28.389 0 0 1 28.512 28.573 42.158 42.158 0 0 0 42.149 42.238 28.389 28.389 0 0 1 28.512 28.573 42.158 42.158 0 0 0 42.154 42.237A28.389 28.389 0 0 1 269.008 241a42.158 42.158 0 0 0 42.149 42.238 28.389 28.389 0 0 1 28.512 28.573 42.158 42.158 0 0 0 42.149 42.238 28.389 28.389 0 0 1 28.512 28.573 42.158 42.158 0 0 0 42.148 42.238 28.573 28.573 0 0 1 0 57.146z" transform="translate(989.255)" style="fill:#fff"/>
            <path data-name="Path 1203" d="M28.512 198.767a28.389 28.389 0 0 0 28.512-28.573 42.158 42.158 0 0 1 42.149-42.238 28.389 28.389 0 0 0 28.512-28.573 42.158 42.158 0 0 1 42.149-42.238 28.389 28.389 0 0 0 28.512-28.573 28.512 28.512 0 1 0-57.025 0 42.158 42.158 0 0 1-42.148 42.239 28.389 28.389 0 0 0-28.512 28.572 42.158 42.158 0 0 1-42.149 42.238 28.573 28.573 0 0 0 0 57.146z" transform="translate(847.933 566.486)" style="fill:#fff"/>
            <ellipse data-name="Ellipse 193" cx="27.839" cy="28.309" rx="27.839" ry="28.309" transform="translate(989.897 708.576)" style="fill:#fff"/>
            <ellipse data-name="Ellipse 194" cx="28.249" cy="28.719" rx="28.249" ry="28.719" transform="translate(1130.732 .447)" style="fill:#fff"/>
            <path data-name="Path 1204" d="M57.025 28.573a42.158 42.158 0 0 0 42.148 42.238 28.573 28.573 0 1 1-28.512 28.572 42.158 42.158 0 0 0-42.149-42.238A28.389 28.389 0 0 1 0 28.573a28.512 28.512 0 1 1 57.025 0z" transform="translate(847.933 566.486)" style="fill:#fff"/>
            <path data-name="Path 1205" d="M28.512 198.767a28.389 28.389 0 0 0 28.512-28.573 42.158 42.158 0 0 1 42.149-42.238 28.389 28.389 0 0 0 28.512-28.573 42.158 42.158 0 0 1 42.149-42.238 28.389 28.389 0 0 0 28.512-28.573 28.512 28.512 0 1 0-57.025 0 42.158 42.158 0 0 1-42.148 42.239 28.389 28.389 0 0 0-28.512 28.572 42.158 42.158 0 0 1-42.149 42.238 28.573 28.573 0 0 0 0 57.146z" transform="translate(777.272 495.676)" style="fill:#fff"/>
            <path data-name="Path 1206" d="M169.834 198.767a28.389 28.389 0 0 1-28.512-28.573 42.158 42.158 0 0 0-42.149-42.238 28.389 28.389 0 0 1-28.512-28.573 42.158 42.158 0 0 0-42.149-42.238A28.389 28.389 0 0 1 0 28.573a28.512 28.512 0 1 1 57.025 0 42.158 42.158 0 0 0 42.148 42.238 28.389 28.389 0 0 1 28.512 28.573 42.158 42.158 0 0 0 42.149 42.238 28.573 28.573 0 0 1 0 57.146z" transform="translate(706.611 566.486)" style="fill:#fff"/>
            <path data-name="Path 1207" d="M57.025 28.573a42.158 42.158 0 0 0 42.148 42.238 28.573 28.573 0 1 1-28.512 28.572 42.158 42.158 0 0 0-42.149-42.238A28.389 28.389 0 0 1 0 28.573a28.512 28.512 0 1 1 57.025 0z" transform="translate(635.454 637.297)" style="fill:#fff"/>
            <path data-name="Union 2" d="M0 28.573a28.39 28.39 0 0 0 28.513 28.573 42.238 42.238 0 0 1 0 84.475 28.573 28.573 0 0 0 0 57.145 42.158 42.158 0 0 1 42.147 42.239 28.513 28.513 0 1 0 28.513-28.573 42.238 42.238 0 0 1 0-84.475 28.573 28.573 0 0 0 0-57.145 42.159 42.159 0 0 1-42.149-42.239 28.512 28.512 0 1 0-57.024 0z" transform="translate(494.628 495.675)" style="fill:#fff"/>
            <ellipse data-name="Ellipse 195" cx="28.658" cy="28.309" rx="28.658" ry="28.309" transform="translate(423.281 708.576)" style="fill:#fff"/>
            <path data-name="Path 1211" d="M28.512 57.145a42.158 42.158 0 0 1 42.149 42.238 28.512 28.512 0 1 0 28.512-28.572 42.158 42.158 0 0 1-42.148-42.238 28.512 28.512 0 1 0-57.025 0 28.389 28.389 0 0 0 28.512 28.572z" transform="translate(282.644)" style="fill:#fff"/>
            <path data-name="Path 1212" d="M70.661 170.194a42.158 42.158 0 0 0-42.149-42.238 28.573 28.573 0 0 1 0-57.146 42.158 42.158 0 0 0 42.149-42.237 28.512 28.512 0 1 1 57.025 0 28.389 28.389 0 0 1-28.513 28.573 42.238 42.238 0 0 0 0 84.476 28.573 28.573 0 1 1-28.512 28.573z" transform="translate(353.305)" style="fill:#fff"/>
            <path data-name="Path 1213" d="M70.661 170.194a42.158 42.158 0 0 0-42.149-42.238 28.573 28.573 0 0 1 0-57.145 42.158 42.158 0 0 0 42.149-42.238 28.512 28.512 0 1 1 57.025 0 28.389 28.389 0 0 1-28.513 28.573 42.238 42.238 0 0 0 0 84.476 28.573 28.573 0 1 1-28.512 28.573z" transform="translate(494.627 283.243)" style="fill:#fff"/>
            <path data-name="Path 1215" d="M169.834 198.767a28.389 28.389 0 0 1-28.512-28.573 42.149 42.149 0 1 0-84.3 0 28.512 28.512 0 1 1-28.512-28.573 42.238 42.238 0 0 0 0-84.476A28.389 28.389 0 0 1 0 28.573a28.512 28.512 0 1 1 57.025 0 42.158 42.158 0 0 0 42.148 42.238 28.389 28.389 0 0 1 28.512 28.573 42.158 42.158 0 0 0 42.149 42.238 28.573 28.573 0 0 1 0 57.146z" transform="translate(635.454 354.054)" style="fill:#fff"/>
            <path data-name="Path 1216" d="M28.512 0a28.389 28.389 0 0 1 28.513 28.573 42.149 42.149 0 1 0 84.3 0 28.512 28.512 0 1 1 57.025 0 28.389 28.389 0 0 1-28.512 28.573 42.238 42.238 0 0 0 0 84.476 28.573 28.573 0 1 1-28.512 28.573 42.158 42.158 0 0 0-42.149-42.238 28.389 28.389 0 0 1-28.516-28.573 42.158 42.158 0 0 0-42.149-42.238A28.389 28.389 0 0 1 0 28.573 28.389 28.389 0 0 1 28.512 0z" transform="translate(706.611)" style="fill:#fff"/>
            <g data-name="Group 607">
                <g data-name="Group 606">
                    <path data-name="Path 1217" d="M70.661 28.573a42.158 42.158 0 0 1-42.149 42.238 28.573 28.573 0 1 0 28.513 28.572 42.158 42.158 0 0 1 42.148-42.238 28.389 28.389 0 0 0 28.512-28.573 28.512 28.512 0 1 0-57.025 0z" transform="translate(353.305 566.487)" style="fill:#fff"/>
                    <path data-name="Path 1218" d="M28.512 70.811a42.158 42.158 0 0 0 42.149-42.238 28.512 28.512 0 1 1 57.025 0 42.158 42.158 0 0 0 42.149 42.238 28.573 28.573 0 1 1-28.512 28.573 42.149 42.149 0 1 0-84.3 0 28.512 28.512 0 1 1-28.511-28.573z" transform="translate(282.644 495.676)" style="fill:#fff"/>
                </g>
            </g>
            <ellipse data-name="Ellipse 196" cx="28.512" cy="28.573" rx="28.512" ry="28.573" transform="translate(141.322 212.433)" style="fill:#fff"/>
            <ellipse data-name="Ellipse 197" cx="28.512" cy="28.573" rx="28.512" ry="28.573" transform="translate(141.322 354.054)" style="fill:#fff"/>
            <ellipse data-name="Ellipse 198" cx="28.512" cy="28.573" rx="28.512" ry="28.573" transform="translate(141.322 495.676)" style="fill:#fff"/>
            <ellipse data-name="Ellipse 335" cx="28.512" cy="28.573" rx="28.512" ry="28.573" transform="translate(205.435 644.13)" style="fill:#fff"/>
            <ellipse data-name="Ellipse 199" cx="28.512" cy="28.573" rx="28.512" ry="28.573" transform="translate(0 637.297)" style="fill:#fff"/>
            <ellipse data-name="Ellipse 202" cx="28.512" cy="28.573" rx="28.512" ry="28.573" transform="translate(0 70.811)" style="fill:#fff"/>
        </g>
        <g data-name="Group 609" transform="translate(281.868 287.875)">
            <ellipse data-name="Ellipse 205" cx="28.512" cy="28.573" rx="28.512" ry="28.573" transform="translate(142.066 141.622)" style="fill:#fff"/>
            <ellipse data-name="Ellipse 206" cx="28.512" cy="28.573" rx="28.512" ry="28.573" transform="translate(142.066)" style="fill:#fff"/>
            <path data-name="Path 1220" d="M57.025 28.573a42.158 42.158 0 0 0 42.148 42.238 28.573 28.573 0 0 1 0 57.145 42.158 42.158 0 0 0-42.149 42.238 28.512 28.512 0 1 1-28.512-28.573 42.238 42.238 0 0 0 0-84.476A28.389 28.389 0 0 1 0 28.573a28.512 28.512 0 1 1 57.025 0z" style="fill:#fff"/>
        </g>
    </g>
</svg>
