<svg xmlns="http://www.w3.org/2000/svg" xmlns:xlink="http://www.w3.org/1999/xlink" width="712.469" height="1202.348" viewBox="0 0 712.469 1202.348">
  <defs>
    <linearGradient id="linear-gradient" x1="1" y1="0.324" x2="0" y2="0.322" gradientUnits="objectBoundingBox">
      <stop offset="0" stop-color="#fdb913"/>
      <stop offset="1" stop-color="#d31184"/>
    </linearGradient>
  </defs>
  <path id="Union_4" data-name="Union 4" d="M122.153,1152.937a49.41,49.41,0,1,1,49.411,49.411A49.411,49.411,0,0,1,122.153,1152.937ZM122.2,906.85A72.91,72.91,0,0,0,49.311,833.8a49.415,49.415,0,0,1,0-98.83A72.911,72.911,0,0,0,122.2,661.922q0-1.536.09-3.048A72.9,72.9,0,0,0,49.459,588.78a49.416,49.416,0,0,1,0-98.831,72.9,72.9,0,0,0,72.836-70.095q-.09-1.511-.09-3.048a72.91,72.91,0,0,0-72.894-73.048,49.416,49.416,0,0,1,0-98.831,73.049,73.049,0,0,0,0-146.1A49.1,49.1,0,0,1,0,49.415a49.311,49.311,0,1,1,98.621,0,72.91,72.91,0,0,0,72.895,73.049,49.416,49.416,0,0,1,0,98.831,73.049,73.049,0,0,0,0,146.1c.6,0,1.205.011,1.8.032a72.91,72.91,0,0,0,71.4-73.033,49.311,49.311,0,1,1,49.311,49.415,73.049,73.049,0,0,0,0,146.1,49.1,49.1,0,0,1,49.311,49.415c0,.008,0,.015,0,.023s0,.015,0,.024a49.1,49.1,0,0,1-49.311,49.415,72.91,72.91,0,0,0-72.894,73.048A49.106,49.106,0,0,1,186.3,709.121a49.922,49.922,0,0,1-14.782,2.216,73.049,73.049,0,0,0,0,146.1A49.415,49.415,0,1,1,122.2,906.85Zm49.459-440.534a73.049,73.049,0,0,0,0,146.1h.158a72.911,72.911,0,0,0,72.894-72.859q0-.118,0-.237c0-.466,0-.934-.013-1.4a72.907,72.907,0,0,0-72.881-71.6h-.158ZM378.9,819.492a48.739,48.739,0,0,1-16.092-36.336c0-40.307-33.163-72.895-74.181-72.895-27.927,0-50.18-21.868-50.18-49.311s22.253-49.311,50.18-49.311,50.181,21.869,50.181,49.311c0,40.307,33.163,72.894,74.181,72.894s74.181-32.587,74.181-72.894a50.117,50.117,0,0,1,.267-5.175c-2.837-37.821-34.76-67.56-73.82-67.56a51.408,51.408,0,0,1-15.034-2.224,49.2,49.2,0,0,1-35.351-47.285c0-40.392-33.093-73.049-74.024-73.049-27.868,0-50.075-21.914-50.075-49.415s22.207-49.415,50.075-49.415c40.931,0,74.024-32.657,74.024-73.049s-33.093-73.048-74.024-73.048c-27.868,0-50.075-21.915-50.075-49.415S261.345,121.9,289.212,121.9c27.432,0,50.075,21.915,50.075,49.415,0,40.029,32.5,72.463,72.926,73.041.449-.012.9-.017,1.35-.017,41.018,0,74.181-32.589,74.181-72.895,0-27.443,22.254-49.311,50.181-49.311S588.107,144,588.107,171.445c0,40.306,33.163,72.895,74.181,72.895,27.927,0,50.181,21.867,50.181,49.31s-22.254,49.311-50.181,49.311-50.181-21.868-50.181-49.311c0-40.306-33.163-72.894-74.181-72.894s-74.181,32.587-74.181,72.894a48.839,48.839,0,0,1-21.472,40.569,50.533,50.533,0,0,1-28.961,8.976c-40.93,0-74.024,32.656-74.024,73.048s33.094,73.049,74.024,73.049q.921,0,1.833.031c40.225-.8,72.5-33.144,72.5-73.033,0-27.5,22.207-49.415,50.075-49.415S587.8,388.789,587.8,416.29s-22.208,49.415-50.075,49.415c-40.931,0-74.024,32.657-74.024,73.049,0,39.268,31.277,71.225,70.625,72.973q1.505-.085,3.034-.086a50.867,50.867,0,0,1,17.67,3.138A49.157,49.157,0,0,1,587.8,661.217v.047c0,27.5-22.208,49.415-50.075,49.415-40.931,0-74.024,32.656-74.024,73.049,0,27.5-22.207,49.415-50.075,49.415A50.285,50.285,0,0,1,378.9,819.492Zm-15.522-158.2c0-27.29,22.465-49.411,50.177-49.411S463.735,634,463.735,661.289s-22.464,49.41-50.176,49.41S363.382,688.577,363.382,661.289Zm-241.034-121.9A49.41,49.41,0,1,1,171.76,588.8,49.411,49.411,0,0,1,122.349,539.388ZM363.382,416.266c0-27.289,22.465-49.411,50.177-49.411s50.176,22.122,50.176,49.411-22.464,49.411-50.176,49.411S363.382,443.555,363.382,416.266Zm-241.034-121.9a49.41,49.41,0,1,1,49.411,49.411A49.41,49.41,0,0,1,122.349,294.367Z" fill="url(#linear-gradient)"/>
</svg>
